<?xml version="1.0" encoding="UTF-8"?>
<mxfile host="app.diagrams.net" modified="2024-12-23T12:00:00.000Z" agent="Mozilla/5.0" version="24.7.17" etag="UCdetail-07" type="device">
  <diagram name="UCdetail-07: Collaboration &amp; Social Features" id="ucdetail-07">
    <mxGraphModel dx="1400" dy="900" grid="1" gridSize="10" guides="1" tooltips="1" connect="1" arrows="1" fold="1" page="1" pageScale="1" pageWidth="1200" pageHeight="800" math="0" shadow="0">
      <root>
        <mxCell id="0"/>
        <mxCell id="1" parent="0"/>
        
        <mxCell id="title" value="UCdetail-07: Collaboration &amp; Social Features Module" style="text;html=1;align=center;verticalAlign=middle;whiteSpace=wrap;rounded=0;fontSize=18;fontStyle=1;fillColor=#fa541c;fontColor=#ffffff" vertex="1" parent="1">
          <mxGeometry x="200" y="20" width="800" height="40" as="geometry"/>
        </mxCell>

        <mxCell id="system-boundary" value="Collaboration &amp; Social Features Module" style="rounded=1;whiteSpace=wrap;html=1;fontSize=14;fontStyle=1;fillColor=#fff7e6;strokeColor=#fa541c;strokeWidth=2;verticalAlign=top" vertex="1" parent="1">
          <mxGeometry x="150" y="80" width="900" height="650" as="geometry"/>
        </mxCell>

        <!-- Actors -->
        <mxCell id="student" value="Student" style="shape=umlActor;verticalLabelPosition=bottom;verticalAlign=top;html=1;outlineConnect=0;fontSize=12;fillColor=#d5e8d4;strokeColor=#82b366" vertex="1" parent="1">
          <mxGeometry x="50" y="200" width="40" height="80" as="geometry"/>
        </mxCell>

        <mxCell id="instructor" value="Instructor" style="shape=umlActor;verticalLabelPosition=bottom;verticalAlign=top;html=1;outlineConnect=0;fontSize=12;fillColor=#e1d5e7;strokeColor=#9673a6" vertex="1" parent="1">
          <mxGeometry x="50" y="400" width="40" height="80" as="geometry"/>
        </mxCell>

        <mxCell id="notification-system" value="Notification System" style="shape=umlActor;verticalLabelPosition=bottom;verticalAlign=top;html=1;outlineConnect=0;fontSize=10;fillColor=#fff2cc;strokeColor=#d6b656" vertex="1" parent="1">
          <mxGeometry x="1100" y="300" width="40" height="80" as="geometry"/>
        </mxCell>

        <!-- Primary Use Cases -->
        <mxCell id="create-discussion" value="Create Discussion Forum" style="ellipse;whiteSpace=wrap;html=1;fontSize=11;fillColor=#ffe6cc;strokeColor=#d79b00;fontStyle=1" vertex="1" parent="1">
          <mxGeometry x="200" y="120" width="120" height="70" as="geometry"/>
        </mxCell>

        <mxCell id="participate-discussion" value="Participate in Discussion" style="ellipse;whiteSpace=wrap;html=1;fontSize=11;fillColor=#d5e8d4;strokeColor=#82b366;fontStyle=1" vertex="1" parent="1">
          <mxGeometry x="360" y="120" width="120" height="70" as="geometry"/>
        </mxCell>

        <mxCell id="share-solution" value="Share Algorithm Solution" style="ellipse;whiteSpace=wrap;html=1;fontSize=11;fillColor=#d5e8d4;strokeColor=#82b366" vertex="1" parent="1">
          <mxGeometry x="520" y="120" width="120" height="70" as="geometry"/>
        </mxCell>

        <mxCell id="peer-review" value="Conduct Peer Review" style="ellipse;whiteSpace=wrap;html=1;fontSize=11;fillColor=#e1d5e7;strokeColor=#9673a6" vertex="1" parent="1">
          <mxGeometry x="680" y="120" width="120" height="70" as="geometry"/>
        </mxCell>

        <mxCell id="create-study-group" value="Create Study Group" style="ellipse;whiteSpace=wrap;html=1;fontSize=11;fillColor=#ffe6cc;strokeColor=#d79b00" vertex="1" parent="1">
          <mxGeometry x="840" y="120" width="120" height="70" as="geometry"/>
        </mxCell>

        <!-- Support Use Cases -->
        <mxCell id="moderate-content" value="Moderate Discussion Content" style="ellipse;whiteSpace=wrap;html=1;fontSize=10;fillColor=#f0f9ff;strokeColor=#1890ff" vertex="1" parent="1">
          <mxGeometry x="250" y="250" width="110" height="60" as="geometry"/>
        </mxCell>

        <mxCell id="rate-solution" value="Rate Solution Quality" style="ellipse;whiteSpace=wrap;html=1;fontSize=10;fillColor=#f0f9ff;strokeColor=#1890ff" vertex="1" parent="1">
          <mxGeometry x="390" y="250" width="110" height="60" as="geometry"/>
        </mxCell>

        <mxCell id="send-notifications" value="Send Social Notifications" style="ellipse;whiteSpace=wrap;html=1;fontSize=10;fillColor=#fff7e6;strokeColor=#d48806" vertex="1" parent="1">
          <mxGeometry x="530" y="250" width="110" height="60" as="geometry"/>
        </mxCell>

        <mxCell id="track-engagement" value="Track User Engagement" style="ellipse;whiteSpace=wrap;html=1;fontSize=10;fillColor=#e1d5e7;strokeColor=#9673a6" vertex="1" parent="1">
          <mxGeometry x="670" y="250" width="110" height="60" as="geometry"/>
        </mxCell>

        <!-- Special Features -->
        <mxCell id="real-time-chat" value="Real-time Chat" style="ellipse;whiteSpace=wrap;html=1;fontSize=10;fillColor=#fff1f0;strokeColor=#ff4d4f" vertex="1" parent="1">
          <mxGeometry x="200" y="400" width="100" height="60" as="geometry"/>
        </mxCell>

        <mxCell id="code-collaboration" value="Collaborative Code Editing" style="ellipse;whiteSpace=wrap;html=1;fontSize=10;fillColor=#fff1f0;strokeColor=#ff4d4f" vertex="1" parent="1">
          <mxGeometry x="320" y="400" width="100" height="60" as="geometry"/>
        </mxCell>

        <mxCell id="video-conference" value="Video Conference Integration" style="ellipse;whiteSpace=wrap;html=1;fontSize=10;fillColor=#fff1f0;strokeColor=#ff4d4f" vertex="1" parent="1">
          <mxGeometry x="440" y="400" width="100" height="60" as="geometry"/>
        </mxCell>

        <!-- Include Relationships -->
        <mxCell id="include1" value="&lt;&lt;include&gt;&gt;" style="endArrow=openThin;html=1;rounded=0;fontSize=9;startSize=8;endSize=8;dashed=1;exitX=0.5;exitY=1;entryX=0.5;entryY=0;" edge="1" parent="1" source="create-discussion" target="moderate-content">
          <mxGeometry width="50" height="50" relative="1" as="geometry">
            <mxPoint x="400" y="350" as="sourcePoint"/>
            <mxPoint x="450" y="300" as="targetPoint"/>
          </mxGeometry>
        </mxCell>

        <mxCell id="include2" value="&lt;&lt;include&gt;&gt;" style="endArrow=openThin;html=1;rounded=0;fontSize=9;startSize=8;endSize=8;dashed=1;exitX=0.5;exitY=1;entryX=0.5;entryY=0;" edge="1" parent="1" source="share-solution" target="rate-solution">
          <mxGeometry width="50" height="50" relative="1" as="geometry">
            <mxPoint x="400" y="350" as="sourcePoint"/>
            <mxPoint x="450" y="300" as="targetPoint"/>
          </mxGeometry>
        </mxCell>

        <mxCell id="include3" value="&lt;&lt;include&gt;&gt;" style="endArrow=openThin;html=1;rounded=0;fontSize=9;startSize=8;endSize=8;dashed=1;exitX=0.8;exitY=1;entryX=0.2;entryY=0;" edge="1" parent="1" source="participate-discussion" target="send-notifications">
          <mxGeometry width="50" height="50" relative="1" as="geometry">
            <mxPoint x="400" y="350" as="sourcePoint"/>
            <mxPoint x="450" y="300" as="targetPoint"/>
          </mxGeometry>
        </mxCell>

        <!-- Extend Relationships -->
        <mxCell id="extend1" value="&lt;&lt;extend&gt;&gt;" style="endArrow=openThin;html=1;rounded=0;fontSize=9;startSize=8;endSize=8;dashed=1;exitX=0.5;exitY=0;entryX=0.5;entryY=1;" edge="1" parent="1" source="real-time-chat" target="participate-discussion">
          <mxGeometry width="50" height="50" relative="1" as="geometry">
            <mxPoint x="400" y="350" as="sourcePoint"/>
            <mxPoint x="450" y="300" as="targetPoint"/>
          </mxGeometry>
        </mxCell>

        <mxCell id="extend2" value="&lt;&lt;extend&gt;&gt;" style="endArrow=openThin;html=1;rounded=0;fontSize=9;startSize=8;endSize=8;dashed=1;exitX=0.5;exitY=0;entryX=0.5;entryY=1;" edge="1" parent="1" source="code-collaboration" target="share-solution">
          <mxGeometry width="50" height="50" relative="1" as="geometry">
            <mxPoint x="400" y="350" as="sourcePoint"/>
            <mxPoint x="450" y="300" as="targetPoint"/>
          </mxGeometry>
        </mxCell>

        <mxCell id="extend3" value="&lt;&lt;extend&gt;&gt;" style="endArrow=openThin;html=1;rounded=0;fontSize=9;startSize=8;endSize=8;dashed=1;exitX=0.5;exitY=0;entryX=0.3;entryY=1;" edge="1" parent="1" source="video-conference" target="create-study-group">
          <mxGeometry width="50" height="50" relative="1" as="geometry">
            <mxPoint x="400" y="350" as="sourcePoint"/>
            <mxPoint x="450" y="300" as="targetPoint"/>
          </mxGeometry>
        </mxCell>

        <!-- Actor Connections -->
        <mxCell id="student-participate" value="" style="endArrow=none;html=1;rounded=0;fontSize=12;startSize=8;endSize=8;exitX=1;exitY=0.3;" edge="1" parent="1" source="student" target="participate-discussion">
          <mxGeometry width="50" height="50" relative="1" as="geometry">
            <mxPoint x="400" y="400" as="sourcePoint"/>
            <mxPoint x="450" y="350" as="targetPoint"/>
          </mxGeometry>
        </mxCell>

        <mxCell id="student-share" value="" style="endArrow=none;html=1;rounded=0;fontSize=12;startSize=8;endSize=8;exitX=1;exitY=0.5;" edge="1" parent="1" source="student" target="share-solution">
          <mxGeometry width="50" height="50" relative="1" as="geometry">
            <mxPoint x="400" y="400" as="sourcePoint"/>
            <mxPoint x="450" y="350" as="targetPoint"/>
          </mxGeometry>
        </mxCell>

        <mxCell id="instructor-create" value="" style="endArrow=none;html=1;rounded=0;fontSize=12;startSize=8;endSize=8;exitX=1;exitY=0.3;" edge="1" parent="1" source="instructor" target="create-discussion">
          <mxGeometry width="50" height="50" relative="1" as="geometry">
            <mxPoint x="400" y="400" as="sourcePoint"/>
            <mxPoint x="450" y="350" as="targetPoint"/>
          </mxGeometry>
        </mxCell>

        <mxCell id="instructor-review" value="" style="endArrow=none;html=1;rounded=0;fontSize=12;startSize=8;endSize=8;exitX=1;exitY=0.5;" edge="1" parent="1" source="instructor" target="peer-review">
          <mxGeometry width="50" height="50" relative="1" as="geometry">
            <mxPoint x="400" y="400" as="sourcePoint"/>
            <mxPoint x="450" y="350" as="targetPoint"/>
          </mxGeometry>
        </mxCell>

        <mxCell id="notification-connection" value="" style="endArrow=none;html=1;rounded=0;fontSize=12;startSize=8;endSize=8;exitX=0;exitY=0.5;" edge="1" parent="1" source="notification-system" target="send-notifications">
          <mxGeometry width="50" height="50" relative="1" as="geometry">
            <mxPoint x="400" y="400" as="sourcePoint"/>
            <mxPoint x="450" y="350" as="targetPoint"/>
          </mxGeometry>
        </mxCell>

        <!-- Scenarios -->
        <mxCell id="scenario-discussion" value="Scenario 1: Create Discussion Forum&#xa;1. Instructor creates new topic&#xa;2. System moderates content&#xa;3. Students participate actively" style="rounded=1;whiteSpace=wrap;html=1;fontSize=9;align=left;verticalAlign=top;fillColor=#f0f9ff;strokeColor=#1890ff" vertex="1" parent="1">
          <mxGeometry x="180" y="520" width="180" height="80" as="geometry"/>
        </mxCell>

        <mxCell id="scenario-collaboration" value="Scenario 2: Collaborative Coding&#xa;1. Students join study group&#xa;2. Share algorithm solutions&#xa;3. Real-time code editing&#xa;4. Peer review process" style="rounded=1;whiteSpace=wrap;html=1;fontSize=9;align=left;verticalAlign=top;fillColor=#f6ffed;strokeColor=#52c41a" vertex="1" parent="1">
          <mxGeometry x="380" y="520" width="180" height="80" as="geometry"/>
        </mxCell>

        <mxCell id="scenario-social" value="Scenario 3: Social Learning&#xa;1. Student engages in discussion&#xa;2. Receives notifications&#xa;3. Rates peer solutions&#xa;4. Builds learning community" style="rounded=1;whiteSpace=wrap;html=1;fontSize=9;align=left;verticalAlign=top;fillColor=#fff7e6;strokeColor=#d48806" vertex="1" parent="1">
          <mxGeometry x="580" y="520" width="180" height="80" as="geometry"/>
        </mxCell>

      </root>
    </mxGraphModel>
  </diagram>
</mxfile>
